# xmcd
#
# Track frame offsets: 
#        150
#        29525
#        46399
#        87671
#        131154
#        166755
#        185266
#
# Disc length: 3401 seconds
#
# Revision: 0
# Processed by: cddbd v1.5.1PL0 Copyright (c) Steve Scherf et al.
# Submitted via: ExactAudioCopy v0.95a5
#
DISCID=5a0d4707
DTITLE=Allman Brothers Band - Live in Cleveland 2005-07-11 Disc 1
DYEAR=2005
DGENRE=Rock
TTITLE0=Revival
TTITLE1=Done Somebody Wrong
TTITLE2=Soulshine
TTITLE3=Woman Across The River
TTITLE4=Black Hearted Woman
TTITLE5=Midnight Rider
TTITLE6=Egypt
EXTD=
EXTT0=
EXTT1=
EXTT2=
EXTT3=
EXTT4=
EXTT5=
EXTT6=
PLAYORDER=
